<?xml version="1.0" encoding="UTF-8"?>
<svg id="Layer_1" xmlns="http://www.w3.org/2000/svg" version="1.1" viewBox="0 0 1000 1000">
  <!-- Generator: Adobe Illustrator 29.5.1, SVG Export Plug-In . SVG Version: 2.1.0 Build 141)  -->
  <defs>
    <style>
      .st0 {
        stroke-linecap: round;
      }

      .st0, .st1, .st2, .st3 {
        fill: none;
        stroke: #000;
      }

      .st0, .st2 {
        stroke-linejoin: round;
        stroke-width: 66.67px;
      }

      .st1 {
        isolation: isolate;
        opacity: .1;
      }

      .st1, .st3 {
        stroke-miterlimit: 10;
      }

      .st3 {
        display: none;
        stroke-width: 5px;
      }
    </style>
  </defs>
  <line class="st3" x1="366.7" y1="175.5" x2="366.7" y2="820.94"/>
  <line class="st3" x1="613.26" y1="168.92" x2="613.26" y2="831.08"/>
  <line class="st3" x1="826.8" y1="374.94" x2="171.85" y2="374.94"/>
  <line class="st3" x1="826.8" y1="621.5" x2="171.85" y2="621.5"/>
  <g>
    <path class="st1" d="M233.33,383.33c0-62.85,0-94.28,19.53-113.81,19.53-19.53,50.95-19.53,113.81-19.53h266.67c62.85,0,94.28,0,113.81,19.53,19.53,19.53,19.53,50.95,19.53,113.81v133.33c0,62.85,0,94.28-19.53,113.81s-50.95,19.53-113.81,19.53h-266.67c-62.85,0-94.28,0-113.81-19.53-19.53-19.53-19.53-50.95-19.53-113.81v-133.33Z"/>
    <path class="st2" d="M233.33,383.33c0-62.85,0-94.28,19.53-113.81,19.53-19.53,50.95-19.53,113.81-19.53h266.67c62.85,0,94.28,0,113.81,19.53,19.53,19.53,19.53,50.95,19.53,113.81v133.33c0,62.85,0,94.28-19.53,113.81s-50.95,19.53-113.81,19.53h-266.67c-62.85,0-94.28,0-113.81-19.53-19.53-19.53-19.53-50.95-19.53-113.81v-133.33Z"/>
    <path class="st0" d="M200,750h600"/>
  </g>
</svg>