<svg id="Layer_1" data-name="Layer 1" xmlns="http://www.w3.org/2000/svg" xmlns:xlink="http://www.w3.org/1999/xlink" viewBox="0 0 1004.44 1034.57"><defs><style>.cls-1{stroke-miterlimit:1.02;stroke-width:34.57px;fill:url(#linear-gradient);stroke:url(#linear-gradient-2);}.cls-2{fill:url(#linear-gradient-3);}</style><linearGradient id="linear-gradient" x1="6986.25" y1="-8441.93" x2="10796.88" y2="-8441.93" gradientTransform="matrix(0.26, 0, 0, -0.26, -1840.28, -1706.75)" gradientUnits="userSpaceOnUse"><stop offset="0" stop-color="#5d6f61"/><stop offset="1" stop-color="#404e43"/></linearGradient><linearGradient id="linear-gradient-2" x1="6985.99" y1="-8441.93" x2="10797.15" y2="-8441.93" gradientTransform="matrix(0.26, 0, 0, -0.26, -1840.28, -1706.75)" gradientUnits="userSpaceOnUse"><stop offset="0" stop-color="#cfe33d"/><stop offset="1" stop-color="#9fb21a"/></linearGradient><linearGradient id="linear-gradient-3" x1="5525.84" y1="-8668.01" x2="9215.7" y2="-8668.01" gradientTransform="matrix(0.28, -0.02, -0.02, -0.28, -1751.37, -1747.57)" xlink:href="#linear-gradient-2"/></defs><g id="layer1"><g id="g2827"><rect id="rect2908" class="cls-1" x="17.29" y="17.29" width="969.87" height="1000"/><path id="path3698" class="cls-2" d="M262.94,144.16,176,181.9l40.44,81.5C-90.23,456.87,19.83,829.28,16.74,855.84l512.5-233.2L333.39,270c113-42.75,237.85-53.62,429.19,112.51l-137.85,61L500.58,284c-37.24-.75-74,3.39-109.71,19L584.2,597.84,1000,407.9C890.33,310.7,648.8,87.23,302.47,214.68l-39.53-70.52ZM244.42,319.41,363.87,557.88l-194.16,90.4C118.17,471.5,171.17,386.56,244.42,319.41Z" transform="translate(2.22 17.29)"/></g></g></svg>