<?xml version="1.0" encoding="utf-8"?>
<!-- Generator: Adobe Illustrator 24.1.2, SVG Export Plug-In . SVG Version: 6.00 Build 0)  -->
<svg version="1.1" id="Layer_1" xmlns="http://www.w3.org/2000/svg" xmlns:xlink="http://www.w3.org/1999/xlink" x="0px" y="0px"
	 viewBox="0 0 1000 1000" style="enable-background:new 0 0 1000 1000;" xml:space="preserve">
<style type="text/css">
	.st0{fill:#99CC00;}
	.st1{fill:#FFCC00;}
	.st2{fill:#000099;}
	.st3{fill:#FF0000;}
	.st4{fill:#999900;}
	.st5{fill:#CC6600;}
	.st6{fill:#990033;}
</style>
<g id="Layer_6">
	<polygon class="st0" points="868.7,294.7 794.2,455.4 724.2,294.7 617.2,294.7 739.7,543.3 739.7,675 837.6,675 837.6,543.3 
		968.5,294.7 	"/>
</g>
<g id="Layer_5">
	<path class="st1" d="M709.2,552.4v-71l0,0c-0.1-0.6-21.1-105.5-74.4-151l0,0c-9.8-1.3-20.7-2-33.1-2c-9.9,0-19.3,0.6-28,1.8
		c-16.7,2.4-31.1,7.4-42.2,15.7c-17.6,12.2-27.7,33-27.7,65.5h0h73.4h0c0-19.3,1.7-37.3,21.5-40.5c2-0.3,4.3-0.5,6.7-0.5
		c27.1,0,30.3,16.5,30.3,39.4v20.8c-0.9,0-1.8,0-2.7,0c-41-0.6-81.3,0.9-107.2,20.8c0,0,0,0,0,0c-17.5,13.5-28.5,35.3-28.5,70.8
		c0,40.9,14.6,75.7,53.1,83.9c0,0,0,0,0,0c0,0,0,0,0,0c5.6,1.2,11.6,1.8,18.2,1.8c15.2,0,28.1-2.9,39.1-8.9
		c12.5-6.8,22.6-17.4,31.1-32.1h1.1l3.2,35.7h0h69.7C711.3,586,709.2,568.9,709.2,552.4z M598.5,561.5c-24.5,0-27.7-23.4-27.7-42.6
		c0-28.4,9.8-38.9,25.5-43c10.8-2.8,24.3-2.7,39.4-3.3c0,24.2,4.7,69.3-18.7,84C612.2,559.7,606.1,561.5,598.5,561.5z"/>
</g>
<g id="Layer_4">
	<path class="st2" d="M525.9,451.3C525.9,451.3,525.9,451.3,525.9,451.3c-10.8-11.4-26.1-18.6-48.1-18.6c-27,0-45.5,7.9-60.9,30.7
		h-1.1V323.2h-74.7l0,382.3h71v-29.7h1.1c13.8,25.9,34.4,35,63,35c61.8,0,72.5-54.7,74.3-104.8 M477.8,569.4
		c0,67.3-4.8,95.3-31.8,95.3c-25.4,0-30.2-28.1-30.2-95.3c0-53.5-0.5-90.5,30.2-90.5C478.3,478.9,477.8,515.9,477.8,569.4z"/>
</g>
<g id="Layer_3">
	<path class="st3" d="M341.1,449.5L341.1,449.5c-11.1-4.9-24.2-9.1-39.8-12.3c-26.6-5.6-60.1-8.7-102.4-8.7
		c-179.7,0-199,55-199,119.4c0,73.7,23.2,125.5,199,125.5c40.4,0,75-4,102.8-10.2c14.8-3.3,28.2-7.9,39.4-12.8l0,0
		c0.9-0.4,24.6-18.6,16.6-42.9c-2-6-16.6-19.2-16.6-19.2h0h-38.9l-0.8-0.1H257c0,20.7-9.7,43.1-58,43.1c-59.9,0-61.8-42-61.8-70h204
		v0C341.1,561.5,382.8,515.2,341.1,449.5z M261.8,524.6H137.2c0-20.1-1-55.5,61.8-55.5C263.7,469.1,261.8,501.8,261.8,524.6z"/>
</g>
<g id="Layer_1_1_">
	<path id="ay" class="st4" d="M634.8,330.4l74.4,151v-63.1C709.2,375.7,699.9,339.2,634.8,330.4"/>
	<path id="ba" class="st5" d="M550.8,569.9c0-38.2,1-91-25-118.6c-17.5,13.5-28.5,35.3-28.5,70.8c0,40.9,14.6,75.7,53.1,83.9
		C550.9,593.4,550.8,581,550.8,569.9"/>
	<path id="r" d="M984.8,306.4v-2.9h2.7c1.2,0,2.5,0,2.5,1.3c0,1.3-0.5,1.6-1.9,1.6H984.8 M984.8,308.7h1.8l2.8,5.1h3.2l-3-5.1
		c2.2-0.3,3.4-1.2,3.4-3.5c0-1.3-0.3-2.7-1.5-3.4c-0.9-0.6-2.3-0.6-3.4-0.6h-6v12.6h2.8L984.8,308.7
		C984.8,308.7,984.8,308.7,984.8,308.7z M987.4,319.9c6.9,0,12.6-5.7,12.6-12.6c0-6.9-5.7-12.6-12.6-12.6c-7,0-12.6,5.7-12.6,12.6
		C974.8,314.3,980.4,319.9,987.4,319.9z M987.4,297.2c5.4,0,10.2,4.3,10.2,10.2c0,5.9-4.8,10.2-10.2,10.2c-5.4,0-10.2-4.3-10.2-10.2
		C977.2,301.4,982,297.2,987.4,297.2z"/>
</g>
<g id="Layer_2_1_">
	<path id="ebtop" class="st6" d="M395.9,588.4h-54.8v62.1c0.9-0.4,1.8-0.8,2.6-1.2C376.6,634.9,394,613.9,395.9,588.4"/>
	<path id="ebbottom" class="st6" d="M398,561.5c3.1-48-4.1-88.7-56.9-111.9v111.9H398"/>
</g>
</svg>
